<svg xmlns="http://www.w3.org/2000/svg" viewBox="0 0 131.39 131.47"><g id="Capa_2" data-name="Capa 2"><g id="Capa_1-2" data-name="Capa 1"><path d="M65.77.11C75.93.12,86.09,0,96.25.14a34.93,34.93,0,0,1,34.93,34.54q.4,30.72.07,61.46a35.19,35.19,0,0,1-34.54,35.07c-20.81.37-41.64.32-62.45,0A35,35,0,0,1,.1,96.35q-.23-31,.07-62A34.71,34.71,0,0,1,33.8.17C44.44-.17,55.11.11,65.77.11Zm31,40.82-.74-1c-4.16,2.76-7.75,2.67-11.94-.24A11.27,11.27,0,0,0,69.49,41.9c-3,3.61-4.64,8.29-7.21,13.12-6.71,0-10.86-2-26.21-13.37C32.45,48,34.73,53.54,39,59l-4.75-.67c.64,6.06,3.44,10.17,9.35,12.85l-4,1.33c1.59,5.82,6.15,7.69,11.14,9.06L51,83,33.92,88.22a8.06,8.06,0,0,0,1.34,1c22.89,11.81,51.63-2.17,56-27.48,1-5.77,1.4-11.41,6.68-15.12.1-.06-.1-.54-.16-.84l-4.31.39Z"/><path d="M96.79,40.93l-3.32,5.25,4.31-.39c.06.3.26.78.16.84-5.28,3.71-5.69,9.35-6.68,15.12-4.37,25.31-33.11,39.29-56,27.48a8.06,8.06,0,0,1-1.34-1L51,83l-.26-1.43c-5-1.37-9.55-3.24-11.14-9.06l4-1.33c-5.91-2.68-8.71-6.79-9.35-12.85L39,59c-4.26-5.49-6.54-11-2.92-17.38C51.42,53,55.57,55,62.28,55c2.57-4.83,4.24-9.51,7.21-13.12a11.27,11.27,0,0,1,14.62-2.17c4.19,2.91,7.78,3,11.94.24Z" style="fill:#fff"/></g></g></svg>