<svg xmlns="http://www.w3.org/2000/svg" viewBox="0 0 131.85 131.44"><g id="Capa_2" data-name="Capa 2"><g id="Capa_1-2" data-name="Capa 1"><path d="M66.06,131.37c-10.15,0-20.3.17-30.45,0C15.86,130.94.9,116.76.41,97.14q-.78-31-.08-61.95C.78,15.3,15.65.67,35.55.29Q65.78-.29,96,.26c20.53.35,35.18,15.2,35.58,36.13q.56,29.22-.07,58.46c-.49,22.74-15.26,36.62-38,36.52C84.37,131.34,75.22,131.37,66.06,131.37Zm-36.93-65c0,5.33-.13,10.66,0,16,.36,12,8.68,20.34,20.67,20.52,10.32.16,20.65.13,31,0,11.73-.14,20.18-7.64,20.74-19.3.56-11.46.53-23,0-34.46S93.37,30.22,82,29.76c-11-.44-22-.44-33,0-12,.46-19.62,8.69-19.91,20.66C29,55.73,29.13,61.06,29.13,66.39Z"/><path d="M29.13,66.39c0-5.33-.1-10.66,0-16,.29-12,7.93-20.2,19.91-20.66,11-.42,22-.42,33,0,11.34.46,19.08,8.06,19.55,19.39s.52,23,0,34.46c-.56,11.66-9,19.16-20.74,19.3-10.32.12-20.65.15-31,0-12-.18-20.31-8.5-20.67-20.52C29,77.05,29.13,71.72,29.13,66.39ZM65.59,35.81c-5.17,0-10.34-.07-15.5,0-9,.16-14.7,5.64-14.83,14.65Q35,66.21,35.26,82c.11,8.77,5.59,14.62,14.24,14.83q16,.4,32,0c8.06-.21,13.73-5.65,14-13.49.3-11.32.3-22.67,0-34-.21-8-5.86-13.23-13.87-13.46C76.26,35.69,70.92,35.82,65.59,35.81Z" style="fill:#fff"/><path d="M65.59,35.81c5.33,0,10.67-.12,16,0,8,.23,13.66,5.47,13.87,13.46.29,11.32.29,22.67,0,34-.22,7.84-5.89,13.28-14,13.49q-16,.4-32,0C40.85,96.58,35.37,90.73,35.26,82q-.21-15.73,0-31.49c.13-9,5.79-14.49,14.83-14.65C55.25,35.74,60.42,35.81,65.59,35.81ZM84.06,66.58A18.33,18.33,0,0,0,65.65,48.23a18.43,18.43,0,1,0,.15,36.86A18.33,18.33,0,0,0,84.06,66.58Zm6.65-18.95c0-.69,0-1.38.05-2.07-1.79-1.32-3.68-3.79-5.32-3.64s-3.31,2.8-5,4.35c1.55,1.63,2.93,4.3,4.69,4.57S88.85,48.8,90.71,47.63Z"/><path d="M84.06,66.58A18.33,18.33,0,0,1,65.8,85.09a18.43,18.43,0,1,1-.15-36.86A18.33,18.33,0,0,1,84.06,66.58Zm-30.27.06A12,12,0,0,0,65.84,78.7a12,12,0,0,0,0-24A11.88,11.88,0,0,0,53.79,66.64Z" style="fill:#fff"/><path d="M90.71,47.63c-1.86,1.17-3.9,3.47-5.53,3.21S82,47.9,80.49,46.27c1.64-1.55,3.18-4.18,5-4.35s3.53,2.32,5.32,3.64C90.74,46.25,90.72,46.94,90.71,47.63Z" style="fill:#fff"/><path d="M53.79,66.64a11.88,11.88,0,0,1,12.09-12,12,12,0,0,1,0,24A12,12,0,0,1,53.79,66.64Z"/></g></g></svg>