<svg xmlns="http://www.w3.org/2000/svg" viewBox="0 0 132.06 132.49"><g id="Capa_2" data-name="Capa 2"><g id="Capa_1-2" data-name="Capa 1"><path d="M131.65,66.51c1.11,28.29,2.66,63.36-34.6,65.4-100,2.16-98.48,3.38-96.54-96.47C3.87-13.88,64.5,3.63,97.89.82c37,2.77,34.62,37.59,33.72,65.69Zm-74.84.83v35.09H71.27V67.55c13.88,1.18,11.94-2,13.26-13.81H71.7C69.48,41.12,70.26,40.19,84.86,37.6V26.51c-24.72-5-28.71,7.13-28.51,27.25H45.24V67.34Z"/><path d="M56.81,67.34H45.24V53.76H56.35c-.21-20.14,3.81-32.25,28.51-27.25V37.6c-14.6,2.59-15.38,3.52-13.16,16.14H84.53c-1.31,11.87.6,15-13.26,13.81v34.88H56.81Z" style="fill:#fff"/></g></g></svg>