<svg xmlns="http://www.w3.org/2000/svg" viewBox="0 0 131.26 131.49"><g id="Capa_2" data-name="Capa 2"><g id="Capa_1-2" data-name="Capa 1"><path d="M65.53,131.48c-9.83,0-19.66,0-29.49,0C15.55,131.38,0,115.74,0,95.33q0-29.49.05-59C.09,16.28,15.09.55,35.13.23c20.32-.34,40.66-.29,61,0s35,15.71,35.08,35.95q.08,29.73.07,59.48c0,20.31-15.57,35.73-35.8,35.63-10-.06-19.95,0-29.93,0Zm-35.26-31c4.86-1.61,8.7-2.68,12.39-4.14,4.18-1.66,7.84-1.56,12.29.13,24.41,9.31,50.75-11,47.73-36.67-1.78-15.1-10-25.75-24.44-30.51C64,24.54,51.05,28.06,40.93,39.15c-10.43,11.44-12,24.7-6.22,39a13.13,13.13,0,0,1,.3,7.46C33.91,90.29,32.13,94.77,30.27,100.43Z"/><path d="M30.27,100.43c1.86-5.66,3.64-10.14,4.74-14.78a13.13,13.13,0,0,0-.3-7.46c-5.79-14.34-4.21-27.6,6.22-39,10.12-11.09,23-14.61,37.31-9.91C92.72,34,100.9,44.65,102.68,59.75c3,25.66-23.32,46-47.73,36.67-4.45-1.69-8.11-1.79-12.29-.13C39,97.75,35.13,98.82,30.27,100.43ZM39,91.1c10.52-2.65,10.43-2.28,19.26,0a36.69,36.69,0,0,0,14.22.9c16.33-2.44,27-18.76,23.63-35.2C92.72,40.64,75.9,30.17,60,34.33c-16.11,4.2-26.15,21.29-21.09,36.91C40.94,77.64,44.5,83.57,39,91.1Z" style="fill:#fff"/><path d="M39,91.1c5.54-7.53,2-13.46-.09-19.86-5.06-15.62,5-32.71,21.09-36.91C75.9,30.17,92.72,40.64,96.07,56.8c3.41,16.44-7.3,32.76-23.63,35.2a36.69,36.69,0,0,1-14.22-.9C49.39,88.82,49.48,88.45,39,91.1Zm36.86-9.87c2.07-.52,3.31-.47,3.94-1.06,1.94-1.81,4.92-3.79,5-5.84.1-1.68-3.25-3.66-5.23-5.32-2.4-2-4-.64-5.87,1.25-.91.91-3.62,1.41-4.48.75a80.48,80.48,0,0,1-9.4-8.7c-.68-.71-1-3-.44-3.48,3.4-3.27,1.46-6.51.12-9.62-.57-1.32-2-3.19-3.06-3.17a7.3,7.3,0,0,0-5,2.28c-2.9,3.56-3.31,8.07-.77,11.68A90.7,90.7,0,0,0,64.11,75.78C67.39,78.69,72.37,79.7,75.82,81.23Z"/><path d="M75.82,81.23c-3.45-1.53-8.43-2.54-11.71-5.45A90.7,90.7,0,0,1,50.69,60c-2.54-3.61-2.13-8.12.77-11.68a7.3,7.3,0,0,1,5-2.28c1,0,2.49,1.85,3.06,3.17,1.34,3.11,3.28,6.35-.12,9.62-.53.51-.24,2.77.44,3.48a80.48,80.48,0,0,0,9.4,8.7c.86.66,3.57.16,4.48-.75C75.57,68.37,77.17,67,79.57,69c2,1.66,5.33,3.64,5.23,5.32-.12,2-3.1,4-5,5.84C79.13,80.76,77.89,80.71,75.82,81.23Z" style="fill:#fff"/></g></g></svg>