<svg id="Capa_1" data-name="Capa 1" xmlns="http://www.w3.org/2000/svg" viewBox="0 0 246.7 246.7"><defs><style>.cls-1{fill:#2c3652;}.cls-2{fill:#f1a722;}</style></defs><circle class="cls-1" cx="123.35" cy="123.35" r="123.35"/><path class="cls-2" d="M646.2,335.27c0-6.95-.05-13.91,0-20.86A24.44,24.44,0,0,0,645.1,306a5.23,5.23,0,0,1,1.37-5.7c1.38-1.44,2.63-3,4-4.49s2.07-1.32,3.26,0c1.5,1.72,3,3.46,4.49,5.15a4,4,0,0,1,.89,4.29,28.29,28.29,0,0,0-1,10c.09,2.83,0,5.67,0,8.51q0,12.83,0,25.65c0,.37-.24.92.22,1.06s.56-.46.76-.76a33.33,33.33,0,0,0,5.84-15.5.5.5,0,0,1,0-.12c.25-1.75.67-2.29,1.75-2.24s1.46.7,1.53,2.41c.55,13.49-3.7,25.21-13.13,34.9a45,45,0,0,1-23.51,12.54c-21.93,4.66-43.91-8.68-51.19-28.31-9.36-25.22,4.07-53.37,31.75-60.38a41.74,41.74,0,0,1,14-1.21c1,.09,1.86.22,2,1.43.09,1-.55,1.5-1.9,1.7a41.3,41.3,0,0,0-10.9,3c-10.13,4.52-16.1,12.53-19,23-2.87,10.21-.85,19.65,4.83,28.43.23.37.42,1,.94.86s.24-.78.24-1.21q0-10.49,0-21c0-2.11.08-2.22,2.11-2.7.67-.16.54-.53.41-1a28.12,28.12,0,0,1-.82-3,6.48,6.48,0,0,1,2.46-6.39c4.91-4.16,9.86-8.25,14.83-12.34,1.25-1,2.09-1,3.32,0q7.29,6.12,14.52,12.33c2.86,2.46,3.44,5.53,2,9-.37.89-.43,1.45.78,1.46a1.38,1.38,0,0,1,1.43,1.33,11.59,11.59,0,0,1,.12,1.31q0,15.71,0,31.41a5.18,5.18,0,0,1-.12,1.42c-.24.85.08,1.09.88,1,1.46-.1,2-.67,2-2.4Q646.21,347.45,646.2,335.27ZM610.54,297c-12.71,2.65-31.29,18-30.1,42.33a42.23,42.23,0,0,0,43.94,40.35A40.4,40.4,0,0,0,652.07,368a38.49,38.49,0,0,0,11.06-18.75c-6.36,10.11-15.28,16.36-27.12,18.28s-22.31-1.13-31.24-9.17a36.16,36.16,0,0,1-12.58-27.22C591.91,316.43,598.31,305.25,610.54,297Zm2.06,63.17c0-.61,0-1,0-1.46a79.51,79.51,0,0,1,.17-8,9.9,9.9,0,0,1,9.6-9,10.08,10.08,0,0,1,10.37,7.85c.57,2.33.29,4.69.35,7,0,2.16,0,4.31.11,6.47.07,1.54.64,2,2.15,1.79,1.22-.18,2.4-.59,3.61-.85a1.8,1.8,0,0,0,1.52-2.07c0-3.48-.05-7-.06-10.43,0-5.19,0-10.38,0-15.58,0-1.15-.44-1.62-1.55-1.55-.24,0-.48,0-.72,0l-31,0c-1.7,0-1.87.13-1.87,1.82,0,5.39.06,10.78,0,16.17a4.3,4.3,0,0,0,1.74,3.9A31,31,0,0,0,612.6,360.14Zm13.52-34.77h5c1.68,0,3.35,0,5,0a1.9,1.9,0,0,0,1.57-.67,5.52,5.52,0,0,0-.63-7.73c-4.3-3.57-8.64-7.09-12.94-10.66a1.66,1.66,0,0,0-2.44,0c-1.63,1.4-3.32,2.75-5,4.12-2.78,2.27-5.6,4.51-8.32,6.85a4.12,4.12,0,0,0-1.16,5.29c1.16,2.8,1.16,2.8,4.11,2.73h14.73Zm4,33.68c-.1-2.35.2-5.11-.06-7.85a7.16,7.16,0,0,0-7.23-6.6,6.93,6.93,0,0,0-7.27,6.47c-.3,3.19-.08,6.39-.12,9.58a1.5,1.5,0,0,0,.94,1.53,34.14,34.14,0,0,0,12.56,2.7c.88,0,1.21-.39,1.19-1.24C630.14,362.24,630.17,360.85,630.17,359.05Zm-7.42-27.75v0h8.38c2.64,0,5.27,0,7.91,0,.74,0,1.31-.1,1.4-1.05.12-1.43-.16-1.82-1.61-1.82H607c-1,0-1.77.14-1.76,1.38s.29,1.5,1.72,1.5Zm32.3-2.89V322.9c0-1.74,0-1.72-1.68-1.71-.64,0-1.27-.12-1.91-.18-1.56-.16-2.29.51-2.24,2.06,0,.48,0,1,0,1.44,0,2.91,0,5.83,0,8.75,0,2.21.41,2.59,2.57,2.6.64,0,1.29-.08,1.92,0,1,.08,1.36-.31,1.34-1.3C655,332.49,655.05,330.45,655.05,328.41Zm-5.83,30.67a11.26,11.26,0,0,0,3.15-1.83,6.92,6.92,0,0,0,2.9-6.35c-.16-1.55-.19-3.1-.28-4.65-.07-1.32-.57-1.78-1.88-1.81-1,0-1.91,0-2.86.08-.61,0-1,.28-1,1C649.23,350,649.22,354.48,649.22,359.08Zm2.9-52.71c.8,0,1.6,0,2.39,0a2.06,2.06,0,0,0,1.84-3,17.59,17.59,0,0,0-3.13-3.9c-1-.88-1.66-.82-2.54.23s-1.79,2.23-2.64,3.38c-.68.91-.25,1.84.07,2.73s1,.55,1.64.53C650.54,306.35,651.33,306.36,652.12,306.37Zm-.06,11.92h1.8c1,0,1.24-.71,1.25-1.52s-.24-1.52-1.26-1.52h-3c-1.37,0-1.75.34-1.72,1.52s.43,1.55,1.73,1.53C651.27,318.28,651.67,318.29,652.06,318.29Zm.09,23.35a6.93,6.93,0,0,1,1.59.07c1,0,1.34-.6,1.32-1.55s-.2-1.49-1.25-1.46-2,0-3,0c-1.37,0-1.72.32-1.71,1.52s.43,1.49,1.77,1.42C651.25,341.63,651.6,341.64,652.15,341.64ZM652,312.37v0c.56,0,1.12,0,1.67,0,1,.09,1.48-.39,1.5-1.38s-.25-1.57-1.34-1.55-2.31,0-3.47,0c-.9,0-1.18.49-1.22,1.27,0,1.35.32,1.7,1.66,1.62C651.18,312.35,651.58,312.37,652,312.37Z" transform="translate(-499.88 -240.41)"/><path class="cls-2" d="M648.52,409.57c5.15,2.84,6.32,10,2.31,13.8a7.89,7.89,0,0,1-5.44,2.12c-2.56.08-5.11,0-7.66.1-1.15,0-1.43-.57-1.42-1.57,0-3.39.05-6.79.05-10.18,0-5.79,0-11.57,0-17.36,0-1.67.28-1.92,2-1.85,2.31.09,4.63-.16,6.93.14a7.22,7.22,0,0,1,6.66,7.44C652,405.48,651.46,406.62,648.52,409.57ZM639.09,417c0,1.52,0,3,0,4.55,0,.79.13,1.46,1.13,1.45,1.87,0,3.75,0,5.62-.12a4.52,4.52,0,0,0,4.41-4.37,11.23,11.23,0,0,0,0-2.39,5.26,5.26,0,0,0-5.09-4.94c-1.55-.1-3.11,0-4.66-.12-1.13-.06-1.46.49-1.43,1.52C639.12,414,639.09,415.49,639.09,417Zm.06-13.39c0,.52,0,1,0,1.56a13.25,13.25,0,0,0,.08,1.67c.2,1.4.74,1.89,2.14,1.88a25.69,25.69,0,0,0,2.62-.21c3.65-.41,4.85-1.7,5-5.39,0-.32,0-.64,0-1a4.51,4.51,0,0,0-3.34-4.68,10.35,10.35,0,0,0-5.55-.09c-.93.18-1.32.66-1.21,1.57A40.09,40.09,0,0,1,639.15,403.57Z" transform="translate(-499.88 -240.41)"/><path class="cls-2" d="M594.88,410.12c0-4.52,0-9,0-13.54,0-1.74.3-2,2-1.95,2.23.1,4.46-.12,6.69.15,4.3.53,6.93,3.22,7.26,7.54a15.73,15.73,0,0,1-.28,4.64,7.77,7.77,0,0,1-5.22,6c-.89.32-1.11.58-.52,1.5,2.15,3.31,4.17,6.7,6.29,10,.5.79.33,1-.54,1a3.34,3.34,0,0,1-3.47-2c-1.57-2.93-3.42-5.67-5.13-8.5a3.13,3.13,0,0,0-1.85-1.41c-1.74-.55-2.37-.09-2.37,1.7,0,2.84,0,5.67,0,8.51,0,1,0,1.78-1.33,1.75s-1.56-.31-1.56-1.82C594.87,419.22,594.88,414.67,594.88,410.12Zm5.84-12.86h-1.43c-1.51,0-1.59,0-1.59,1.5q0,4.61,0,9.21a15.51,15.51,0,0,0,.15,1.66,1.43,1.43,0,0,0,1.43,1.35,15.72,15.72,0,0,0,4.74-.3,4.53,4.53,0,0,0,3.26-2.73,9.94,9.94,0,0,0,.56-6.2,5,5,0,0,0-5.2-4.48C602,397.23,601.36,397.26,600.72,397.26Z" transform="translate(-499.88 -240.41)"/><path class="cls-2" d="M672.31,425.53c-1.11.22-1.52-.42-1.74-1.49-.32-1.56-.78-3.09-1.15-4.64a1.2,1.2,0,0,0-1.28-1c-2.52,0-5,0-7.56,0a1.38,1.38,0,0,0-1.46,1.28c-.32,1.44-.68,2.86-1,4.3a2,2,0,0,1-1.46,1.58,1.6,1.6,0,0,1-1.6-.06c-.62-.46-.11-1,0-1.41q3.56-13.76,7.15-27.5c.28-1.06.54-1.95,1.95-2a1.85,1.85,0,0,1,2.14,1.57q3.62,13.86,7.27,27.72C674,425.32,673.78,425.55,672.31,425.53Zm-7.81-26.36-.35,0q-1.95,7.88-3.89,15.76c-.2.85.33,1,1,1h5.87c1.22,0,1.43-.27,1.14-1.46-.43-1.74-.89-3.48-1.33-5.22Q665.73,404.2,664.5,399.17Z" transform="translate(-499.88 -240.41)"/><path class="cls-2" d="M581.53,394.6c1.23-.06,1.75.65,2,1.75q2.48,9.58,5,19.16c.81,3,1.42,6.12,2.48,9.08.09.25.17.51-.06.65a3.12,3.12,0,0,1-2,.44,1.27,1.27,0,0,1-1.08-1.13c-.4-1.63-.83-3.24-1.18-4.87a1.47,1.47,0,0,0-1.68-1.32c-2.07.05-4.15,0-6.22-.08-1.74-.11-2.29.32-2.71,2-.31,1.27-.52,2.57-.82,3.85s-1,1.72-2.37,1.41c-.9-.2-.87-.71-.68-1.43q2.37-8.94,4.71-17.88c.89-3.39,1.78-6.77,2.63-10.17A1.72,1.72,0,0,1,581.53,394.6Zm.09,4.22-.19,0c-.29,1.2-.59,2.4-.88,3.6-1,4-2,8-3,12-.33,1.36-.15,1.57,1.2,1.57h5.63c1.24,0,1.39-.22,1.08-1.44s-.67-2.63-1-3.94Q583,404.67,581.62,398.82Z" transform="translate(-499.88 -240.41)"/><path class="cls-2" d="M622.9,394.64c1.38-.3,1.79.62,2.08,1.71l7,26.81a2,2,0,0,1,.13.58c-.05.58,1.1,1.34-.17,1.74-1.76.56-2.22.34-2.62-1.14s-.81-3.08-1.17-4.63c-.2-.85-.59-1.34-1.53-1.33-2.44,0-4.88,0-7.32,0a1.33,1.33,0,0,0-1.49,1.21c-.31,1.47-.74,2.93-1.09,4.4a2,2,0,0,1-1,1.42,1.76,1.76,0,0,1-2,0c-.69-.49-.08-1,0-1.49q2-7.92,4.11-15.83,1.59-6.12,3.19-12.25A1.43,1.43,0,0,1,622.9,394.64Zm.18,4.38c-.27.27-.35.31-.37.38l-3.81,15.33c-.2.82.12,1.2,1,1.2,1.84,0,3.68,0,5.52,0,1.64,0,1.83-.21,1.44-1.8l-2.49-10C623.93,402.48,623.52,400.82,623.08,399Z" transform="translate(-499.88 -240.41)"/></svg>