<svg id="Capa_1" data-name="Capa 1" xmlns="http://www.w3.org/2000/svg" width="213.69" height="214.02" viewBox="0 0 213.69 214.02">
  <defs>
    <style>
      .cls-1 {
        fill: #e39400; 
      }
    </style>
  </defs>
  <path class="cls-1" d="M679.63,327.36c0-16.36-.12-32.72,0-49.07.07-6.73-.42-13.3-2.63-19.68-1.78-5.15-.52-9.5,3.21-13.41,3.25-3.4,6.2-7.07,9.32-10.58,2.8-3.15,4.86-3.1,7.67.11,3.52,4,7,8.12,10.57,12.1a9.34,9.34,0,0,1,2.1,10.09c-2.57,7.65-2.73,15.61-2.46,23.62.22,6.67.09,13.34.09,20q0,30.18,0,60.36c0,.86-.56,2.16.51,2.5s1.32-1.1,1.8-1.81a78.53,78.53,0,0,0,13.73-36.46,2.7,2.7,0,0,1,0-.28c.6-4.12,1.59-5.39,4.12-5.27s3.45,1.65,3.61,5.68c1.29,31.72-8.71,59.3-30.89,82.08-15.22,15.64-34,25-55.3,29.52-51.6,10.95-103.29-20.43-120.42-66.6-22-59.33,9.58-125.56,74.68-142a98.33,98.33,0,0,1,32.91-2.84c2.33.21,4.38.52,4.64,3.37.21,2.24-1.28,3.53-4.48,4a97.41,97.41,0,0,0-25.64,7.14c-23.82,10.63-37.86,29.48-44.76,54-6.75,24-2,46.21,11.35,66.87.56.85,1,2.44,2.24,2,1-.34.55-1.85.55-2.85q0-24.68,0-49.36c0-5,.18-5.23,5-6.36,1.58-.37,1.28-1.24,1-2.32a67.16,67.16,0,0,1-1.93-7c-1.12-6.14,1.22-11.17,5.79-15,11.54-9.78,23.2-19.41,34.87-29,2.94-2.43,4.93-2.44,7.82,0q17.16,14.43,34.16,29c6.74,5.8,8.08,13,4.74,21.14-.86,2.09-1,3.39,1.85,3.42a3.26,3.26,0,0,1,3.37,3.15,22.43,22.43,0,0,1,.26,3.06q.07,36.94.11,73.89a12.45,12.45,0,0,1-.28,3.35c-.57,2,.17,2.55,2.07,2.42,3.43-.24,4.59-1.57,4.59-5.65Q679.64,356,679.63,327.36Zm-83.87-90.1c-29.91,6.25-73.62,42.46-70.82,99.57,2.62,53.42,46.27,96.54,103.36,94.92,25.15-.71,47-10,65.13-27.47,12.75-12.26,21.75-26.78,26-44.11-15,23.79-35.94,38.5-63.8,43s-52.46-2.66-73.49-21.57c-19-17.09-29.11-38.39-29.59-64C551.93,283,567,256.74,595.76,237.26Zm4.83,148.59c0-1.41,0-2.42,0-3.42.18-6.29-.4-12.59.4-18.86,1.53-12.16,10.39-20.45,22.6-21.13,11.52-.64,21.58,7,24.38,18.47,1.33,5.47.69,11,.81,16.55.12,5.07.05,10.15.28,15.22.16,3.62,1.49,4.75,5.06,4.22,2.86-.43,5.63-1.4,8.47-2s3.62-2.27,3.59-4.88c-.1-8.17-.13-16.34-.15-24.51,0-12.22-.06-24.44,0-36.65,0-2.71-1-3.83-3.63-3.66-.56,0-1.13,0-1.69,0q-36.51,0-73,.05c-4,0-4.38.29-4.38,4.27,0,12.68.13,25.36-.09,38-.07,3.92,1,6.76,4.09,9.18C591.49,379.94,595.43,383.37,600.59,385.85Zm31.8-81.78h11.84c3.94,0,7.89,0,11.83.09a4.46,4.46,0,0,0,3.7-1.58c4.56-5,3.93-13.69-1.49-18.18-10.11-8.4-20.32-16.68-30.45-25.07-2-1.68-3.73-1.64-5.72.07-3.84,3.3-7.81,6.46-11.73,9.68-6.53,5.36-13.15,10.62-19.57,16.12-4.1,3.52-4.78,7.47-2.72,12.45,2.73,6.58,2.73,6.58,9.67,6.42h34.64Zm9.53,79.22c-.24-5.53.48-12-.14-18.47a16.83,16.83,0,0,0-17-15.51c-9.31-.09-16.21,6-17.09,15.22-.72,7.5-.2,15-.3,22.53a3.5,3.5,0,0,0,2.22,3.59A79.8,79.8,0,0,0,639.14,397c2.07,0,2.85-.91,2.8-2.92C641.86,390.81,641.92,387.52,641.92,383.29ZM624.47,318v-.09h19.72q9.3,0,18.59.09c1.75,0,3.09-.25,3.29-2.49.3-3.35-.35-4.27-3.76-4.27q-37.45,0-74.92,0c-2.31,0-4.15.33-4.14,3.25s.69,3.52,4,3.52Zm76-6.8v-13c0-4.09,0-4-4-4-1.49,0-3-.28-4.47-.42-3.69-.36-5.4,1.21-5.29,4.84,0,1.13,0,2.26,0,3.39,0,6.86,0,13.72,0,20.58,0,5.2,1,6.11,6.07,6.12,1.5,0,3-.17,4.5-.05,2.32.18,3.21-.74,3.16-3.08C700.36,320.82,700.44,316,700.44,311.23Zm-13.7,72.14a26,26,0,0,0,7.41-4.32c4.79-3.81,7.42-8.7,6.81-14.93-.36-3.64-.43-7.28-.64-10.93-.18-3.11-1.36-4.2-4.42-4.27-2.25-.05-4.51.05-6.75.19-1.43.09-2.44.67-2.43,2.43C686.77,362,686.74,372.55,686.74,383.37Zm6.83-124c1.87,0,3.74-.05,5.61,0,3.4.13,6.21-4.07,4.32-7a42,42,0,0,0-7.35-9.18c-2.37-2.07-3.91-1.91-6,.55S686,249,684,251.7c-1.59,2.14-.58,4.33.17,6.43.7,1.94,2.4,1.28,3.85,1.24C689.84,259.32,691.71,259.36,693.57,259.36Zm-.14,28h4.21c2.48,0,2.93-1.68,3-3.58s-.56-3.56-3-3.57h-7c-3.21,0-4.11.8-4,3.56s1,3.65,4.07,3.61C691.55,287.39,692.49,287.4,693.43,287.4Zm.2,55c1-.3,2.34.13,3.73.15,2.46,0,3.15-1.4,3.12-3.65,0-2.07-.48-3.49-2.94-3.43s-4.68,0-7,0c-3.21,0-4,.77-4,3.58s1,3.51,4.16,3.33C691.51,342.31,692.34,342.35,693.63,342.35Zm-.41-68.86v.07c1.32,0,2.64-.1,3.94,0,2.43.22,3.47-.92,3.52-3.23s-.59-3.7-3.14-3.66c-2.72,0-5.44.06-8.16,0-2.12-.05-2.8,1.16-2.87,3-.12,3.18.74,4,3.9,3.83C691.34,273.44,692.28,273.49,693.22,273.49Z" transform="translate(-517.81 -225.03)"/>
</svg>
