<svg id="Capa_1" data-name="Capa 1" xmlns="http://www.w3.org/2000/svg" viewBox="0 0 282.65 282.65"><circle cx="141.33" cy="141.33" r="141.33" style="fill:#0f4c75"/><g style="opacity:0.5"><path d="M681.38,341.19c0-16.36-.11-32.72.06-49.07.07-6.73-.43-13.3-2.63-19.69-1.78-5.14-.53-9.49,3.21-13.4,3.24-3.4,6.2-7.07,9.32-10.58,2.8-3.15,4.86-3.1,7.66.11,3.53,4,7,8.12,10.58,12.1a9.32,9.32,0,0,1,2.09,10.09c-2.56,7.65-2.72,15.61-2.45,23.62.22,6.66.09,13.34.09,20q0,30.18,0,60.36c0,.85-.55,2.16.51,2.49s1.32-1.1,1.81-1.8A78.45,78.45,0,0,0,725.37,339c0-.1,0-.19,0-.28.61-4.13,1.6-5.39,4.13-5.27s3.44,1.65,3.61,5.68c1.29,31.72-8.71,59.29-30.89,82.08-15.23,15.63-34,25-55.31,29.51-51.59,10.95-103.28-20.42-120.41-66.59-22-59.33,9.57-125.56,74.67-142a98.37,98.37,0,0,1,32.91-2.84c2.34.21,4.39.52,4.65,3.36.2,2.25-1.29,3.54-4.48,4a96.82,96.82,0,0,0-25.64,7.14c-23.83,10.63-37.86,29.47-44.76,54-6.75,24-2,46.21,11.35,66.87.55.85,1,2.44,2.23,2,1-.33.55-1.85.55-2.84q0-24.69,0-49.36c0-5,.18-5.23,5-6.36,1.57-.37,1.27-1.24,1-2.32a69.71,69.71,0,0,1-1.93-7c-1.12-6.14,1.23-11.17,5.8-15,11.53-9.78,23.2-19.41,34.87-29,2.94-2.42,4.93-2.43,7.82,0q17.15,14.43,34.16,29c6.73,5.8,8.08,13,4.74,21.14-.86,2.09-1,3.39,1.85,3.42a3.25,3.25,0,0,1,3.36,3.14,22.73,22.73,0,0,1,.27,3.07q.08,36.94.11,73.89a12.45,12.45,0,0,1-.28,3.35c-.57,2,.17,2.55,2.07,2.42,3.42-.24,4.58-1.57,4.59-5.65Q681.4,369.81,681.38,341.19Zm-83.87-90.1c-29.9,6.24-73.62,42.46-70.82,99.57,2.62,53.41,46.28,96.54,103.36,94.92,25.16-.71,47-10,65.14-27.47,12.74-12.27,21.75-26.78,26-44.11-15,23.79-35.93,38.49-63.79,43s-52.46-2.66-73.49-21.57c-19-17.09-29.11-38.4-29.59-64C553.69,296.87,568.73,270.57,597.51,251.09Zm4.84,148.59c0-1.42,0-2.42,0-3.42.18-6.29-.4-12.59.39-18.87,1.53-12.15,10.39-20.44,22.6-21.12a23.67,23.67,0,0,1,24.38,18.47c1.34,5.46.69,11,.82,16.55.12,5.07.05,10.15.27,15.21.16,3.63,1.5,4.76,5.06,4.23,2.87-.43,5.64-1.4,8.48-2s3.62-2.27,3.59-4.88c-.1-8.17-.13-16.34-.15-24.52,0-12.21-.06-24.43,0-36.64,0-2.71-1-3.83-3.63-3.66-.57,0-1.13,0-1.69,0q-36.51,0-73,.05c-4,0-4.38.29-4.39,4.27,0,12.68.14,25.36-.08,38-.07,3.92,1,6.76,4.09,9.18C593.25,393.77,597.18,397.2,602.35,399.68Zm31.8-81.78H646c3.94,0,7.89,0,11.83.09a4.48,4.48,0,0,0,3.7-1.59c4.55-5,3.93-13.68-1.49-18.17-10.12-8.4-20.33-16.68-30.45-25.07-2-1.68-3.73-1.64-5.72.07-3.85,3.3-7.81,6.46-11.73,9.68C605.6,288.27,599,293.53,592.56,299c-4.11,3.52-4.78,7.47-2.72,12.45,2.72,6.58,2.72,6.58,9.67,6.42h34.64Zm9.52,79.22c-.23-5.53.49-12-.13-18.47a16.84,16.84,0,0,0-17-15.52c-9.3-.08-16.2,6-17.09,15.23-.72,7.49-.2,15-.3,22.53a3.5,3.5,0,0,0,2.22,3.59,79.85,79.85,0,0,0,29.54,6.36c2.07,0,2.84-.91,2.8-2.92C643.62,404.64,643.67,401.35,643.67,397.12Zm-17.44-65.27v-.08H646q9.3,0,18.59.09c1.75,0,3.09-.25,3.29-2.49.3-3.35-.36-4.27-3.77-4.27q-37.45,0-74.91,0c-2.31,0-4.15.34-4.15,3.25s.7,3.53,4,3.53Zm76-6.8v-13c0-4.09,0-4-4-4a42.4,42.4,0,0,1-4.48-.42c-3.69-.36-5.4,1.22-5.28,4.85,0,1.13,0,2.26,0,3.38,0,6.87,0,13.73,0,20.59,0,5.19,1,6.11,6.06,6.12,1.5,0,3-.17,4.51-.06,2.32.18,3.21-.73,3.15-3.07C702.12,334.65,702.2,329.85,702.2,325.05ZM688.5,397.2a26.3,26.3,0,0,0,7.41-4.32c4.79-3.81,7.42-8.7,6.81-14.93-.36-3.64-.44-7.29-.64-10.93-.18-3.11-1.36-4.2-4.42-4.27-2.25-.05-4.51.05-6.75.19-1.44.09-2.44.67-2.43,2.43C688.52,375.87,688.5,386.37,688.5,397.2Zm6.82-124c1.88,0,3.75-.05,5.62,0,3.4.13,6.21-4.07,4.32-7a42.44,42.44,0,0,0-7.35-9.17c-2.38-2.07-3.92-1.91-6,.55s-4.21,5.25-6.22,7.95c-1.58,2.13-.57,4.33.18,6.42s2.39,1.29,3.85,1.25C691.6,273.15,693.46,273.19,695.32,273.19Zm-.13,28h0c1.4,0,2.81,0,4.21,0,2.47,0,2.93-1.68,2.94-3.58s-.55-3.57-3-3.57h-7c-3.21,0-4.11.81-4,3.57s1,3.65,4.06,3.6Zm.2,54.95c1-.3,2.33.13,3.73.15,2.45,0,3.15-1.4,3.11-3.65,0-2.07-.48-3.5-2.94-3.43s-4.68,0-7,0c-3.2,0-4,.76-4,3.58s1,3.51,4.16,3.33C693.26,356.14,694.1,356.18,695.39,356.18ZM695,287.32v.06c1.31,0,2.63-.09,3.93,0,2.43.22,3.48-.93,3.53-3.24,0-2.15-.59-3.69-3.14-3.66-2.72.05-5.44.06-8.16,0-2.12-.05-2.8,1.16-2.87,3-.12,3.18.74,4,3.89,3.82C693.1,287.27,694,287.32,695,287.32Z" transform="translate(-485.09 -204.54)" style="fill:#f1a722"/></g><circle cx="141.33" cy="141.33" r="141.33" style="fill:#bbe1fa;opacity:0.56"/><text transform="translate(80.47 219.35)" style="font-size:229.5270538330078px;fill:#fff;font-family:Roboto-Black, Roboto;font-weight:800">?</text></svg>