<svg id="Capa_1" data-name="Capa 1" xmlns="http://www.w3.org/2000/svg" viewBox="0 0 609.12 609.84"><defs><style>.cls-1{fill:#fff;}</style></defs><path class="cls-1" d="M844,528c.74-12.66-16.65-16.16-19.4-3.7-2,12.75-3.52,25.64-7,38.14A234.61,234.61,0,0,1,788.76,629a6.54,6.54,0,0,1-12.06-3.33c-1.47-65.56.06-131.73,0-197.41,0-17.31-1.36-34.62-.32-51.88.19-16.68,5.54-32.65,9.18-48.59a6.73,6.73,0,0,0,0-2.86c-3.72-17.58-28.06-35.68-38.49-50.69-9.75-12.9-20.13-2.7-27.1,6.84l-.25.32c-5.19,6.22-10.64,12.24-16,18.34a5.33,5.33,0,0,1-.4.42c-34.25,32.21,1.17,46.44-6.11,101.18a6.22,6.22,0,0,0-.06.86c.78,100.47.32,201,.47,301.53,0,5.74-3.78,10-8.08,13.22a6.59,6.59,0,0,1-1.42.79c-14.87,5.87-9.43-7.09-9.75-16.25-1-73.47,1.93-147.36-1-220.63a6.26,6.26,0,0,0-.18-1.29c-2.8-10.29-18.38-3.39-16.67-10.67,6.43-14.84,10.57-32.27,2.92-47.54-5.06-10-13.14-17.8-21.75-24.7-14.3-12.39-28.89-24.48-43.37-36.67-10.52-9-21.12-17.9-31.66-26.87-8.34-6.19-15.52-17.47-26.88-17.06a8.1,8.1,0,0,0-1,.11c-8.35,1.54-13.88,9.18-20.48,14l-.29.23Q499.69,346,481,361.29c-20.84,19.32-47.59,33.81-63.17,58-14.1,23.77,14.1,56.79-3.43,53.68-9.5-.77-12.25,8.82-11.47,16.57.31,6.64.36,141.38-.45,149.62-1.21,4.13-4.94-.43-6.49-2.27a4.26,4.26,0,0,1-.41-.54C345.84,564.88,340.16,466,382.4,389.63c26.79-49,70.91-88.67,123.68-107.55,20.48-8.37,42.64-10.43,63.86-15.55a5.24,5.24,0,0,0,1.26-.44c6.12-3.22,5.77-14.44-1.05-16.68-2.74-1.89-8.22-.64-10.8-1.77a6.76,6.76,0,0,0-2.68-.64H520.85q-.33,0-.66,0C362.45,262.1,244,381.56,235.88,540.64V563.2c6.26,158.13,131.35,281.42,287.72,293.62l.56,0h31.11l.58,0C711.87,844.1,830.39,730.13,845,573.59c0-.21,0-.43,0-.64m-133.19-253a7.69,7.69,0,0,0,.61-.66c8.3-10.46,20.78-32.47,34.48-16.48,6.64,8.57,18.35,16,18.87,27.6a6.09,6.09,0,0,1,0,.74c-.66,12.18-3.59,14.72-15.23,13.42a7.12,7.12,0,0,0-1.46,0,46.85,46.85,0,0,1-11.65.12,6.82,6.82,0,0,0-1.43,0c-6.44.53-13-.11-19.53.11a6.32,6.32,0,0,1-5.09-2.14C706.79,337.16,707.12,324.55,711.81,319.91Zm6,304.77c.68-5.55-2.25-14.88.38-20.11a6.37,6.37,0,0,1,5.52-3.39c9.73-.32,26.72-4,31.27,5.71a6.67,6.67,0,0,1,.39,1.14c2.18,9.12,1,18.66,1.32,28a6.71,6.71,0,0,0,.23,1.48c6.52,25-9.54,43.24-29,55.66a6.53,6.53,0,0,1-10-5.39c-.29-20.66.27-41.45-.1-62.12A5.81,5.81,0,0,1,717.78,624.68Zm38.83-244.45c-2,8.68-21.5,2.87-28.79,4.54-10.11,3-11.59-6.69-10.09-14.28,1.27-5.12,5.82-4.92,9.76-4.53.21,0,.41,0,.62,0h22.72C758.17,365.89,757.52,375.17,756.61,380.23Zm0,37.09c-.87,12.14-22.24,4.55-30.56,7-11.11,2.38-12-20.51-1.65-20,8.41.63,16.79,0,25.28,0C756.88,404.31,757.14,412.08,756.66,417.32ZM723,444c5-1.21,12,0,16.55-.67a5.29,5.29,0,0,1,.8-.07c8.81-.2,16.05,3.21,15.86,13.06,0,.14,0,.28,0,.42,1,13.81.2,27.64.42,41.47-.14,12.52.26,25.1-.13,37.61a6.11,6.11,0,0,1-1.15,3.51c-3.77,4.93-13.88,2.2-19.74,3.12a7,7,0,0,1-.8.09c-12.59.55-18.14-5.16-17.06-18.26.67-24.7-1.11-49.85.3-74.34A6.49,6.49,0,0,1,723,444Zm33.63,129.28c0,8.26-6.42,8.61-12.41,7.87a127.46,127.46,0,0,0-19.83.29c-9.51.5-9.87-19.87-.35-19.66,7.26,0,14.68,0,21.94,0a7.6,7.6,0,0,0,1.17-.11C754.36,560.49,757.89,566.78,756.67,573.26ZM433.24,438.67c2.93-21.3,26.5-30.84,40.55-44.54l.37-.33c20.8-17,41.68-34,62.35-51.13,8.86-6.88,19.07,9.22,26.78,13.81a7.86,7.86,0,0,1,.89.62c13,10.92,26.39,21.45,39.49,32.29l.31.27c15.22,14.6,38.48,24.54,44.22,46.24a35.91,35.91,0,0,1-8.75,32.7,6.4,6.4,0,0,1-3.6,1.88c-28.68,4.64-60.11-.08-89.61,1.55-30.55.6-61.35-1.2-91.81.71-5.16.89-9-.51-11.44-5.49-4.1-8.81-10-17.64-9.82-27.7A6.52,6.52,0,0,1,433.24,438.67Zm-10.18,59.16c.61-3.86,4.1-4.88,7.71-4.69,66,.33,157.09-.61,222.36.32a6,6,0,0,1,1.92.31c4.47,1.64,4.24,7.68,3.41,12a6.07,6.07,0,0,1-1.61,3.16c-6.41,6.5-22.69,1.19-31.3,2.37a6.22,6.22,0,0,1-.86.06c-64,.23-128-.64-192,.47C424.1,512.71,421.08,505.3,423.06,497.83Zm4.92,35.5c8.48-2.79,26.32,0,33.19-.74.26,0,.51,0,.77,0,50,.83,100,.57,150,.28.31,0,.6,0,.91.06,9.52,1.16,45.11-4.78,45.36,5.15,1,60.13-.93,120.48.53,180.69.81,9.07-7.12,12.4-14.87,12.84-5.82,0-19.78,5.37-28,4.8a6.46,6.46,0,0,1-5.94-6c-1.74-23.71.81-48.08-.31-72,.26-12.27-1.18-24.58-6.18-35.92-9.19-21.5-29.55-38.24-53.1-40.68-33.85-4.8-69,16.7-76.44,50.8-3.68,20.27-1.52,41.11-1.8,61.66a6.52,6.52,0,0,1-10,5.44c-15.22-9.47-39.61-27.63-39.11-36.06.72-41.37-1.33-83.33.5-124.44A6.47,6.47,0,0,1,428,533.33ZM589.65,698.8c0,.12,0,.24,0,.37-.1,10.56-.15,21.13.05,31.7.07,4.17-2.7,5.88-5.69,6-17.39.28-35-2.38-51.85-6.63l-.5-.14c-44.62-14.83-40.18-3.74-39.95-50.68.46-20.5-3.48-43.23,10.59-60.35,15.8-20.95,48.68-23.69,68.77-7.39C598,632.54,587.94,669.31,589.65,698.8Zm221.6-64.38c-59.78,208.66-326,269.39-475.68,115.45-95.51-96.94-107.14-264.32-21-370.85,27.82-35.24,63.66-66.24,104.89-84.65,6.85-3.06,12.57,6,6.9,10.9-26.25,22.71-49.45,49.41-64.87,80.78-52.86,106.51-26.84,239.69,65.94,315.24C548.22,800,734,766.54,811.8,631.21A32.54,32.54,0,0,1,811.25,634.42Z" transform="translate(-235.88 -247)"/><path class="cls-1" d="M843.77,599.23c-23.51,138-129.24,237.95-268,257.61H555.56c156.27-12.61,275-126.78,289.44-283.57v11.12A87.76,87.76,0,0,1,843.77,599.23Z" transform="translate(-235.88 -247)"/></svg>